<?xml version="1.0" standalone="no"?>
<!DOCTYPE svg PUBLIC "-//W3C//DTD SVG 20010904//EN"
 "http://www.w3.org/TR/2001/REC-SVG-20010904/DTD/svg10.dtd">
<svg version="1.0" xmlns="http://www.w3.org/2000/svg"
 width="507.000000pt" height="507.000000pt" viewBox="0 0 507.000000 507.000000"
 preserveAspectRatio="xMidYMid meet">
<metadata>
Created by potrace 1.11, written by Peter Selinger 2001-2013
</metadata>
<g transform="translate(0.000000,507.000000) scale(0.100000,-0.100000)"
fill="#000000" stroke="none">
<path d="M2395 5063 c-159 -10 -388 -46 -500 -79 -27 -8 -50 -14 -50 -14 0 2
-20 -5 -140 -45 -111 -36 -125 -42 -226 -89 -31 -14 -59 -26 -62 -26 -3 0 -48
-25 -101 -55 -52 -30 -98 -55 -101 -55 -3 0 -11 -5 -18 -10 -11 -9 -210 -152
-244 -175 -9 -5 -27 -21 -42 -35 -15 -14 -51 -47 -81 -75 -29 -27 -56 -50 -59
-49 -3 0 -18 -12 -33 -28 -15 -15 -24 -28 -21 -28 4 0 -22 -28 -57 -62 -35
-35 -63 -64 -62 -66 6 -7 -77 -100 -83 -94 -4 4 -5 3 -3 -3 3 -10 -157 -255
-174 -266 -5 -3 -9 -10 -9 -15 1 -17 -10 -44 -20 -44 -5 0 -8 -4 -7 -8 3 -7
-41 -101 -52 -112 -6 -6 -12 -21 -81 -200 -59 -155 -122 -390 -134 -507 -3
-21 -7 -58 -11 -83 -18 -139 -21 -429 -4 -580 19 -177 63 -376 119 -542 16
-49 27 -88 25 -88 -3 0 2 -7 11 -16 9 -9 14 -22 11 -30 -3 -7 -2 -14 2 -16 4
-2 26 -46 50 -98 55 -122 147 -283 222 -388 32 -45 56 -82 53 -82 -4 0 0 -6 9
-13 20 -15 150 -167 144 -167 -2 0 33 -36 79 -80 45 -43 82 -80 81 -82 0 -2 1
-2 2 -1 2 1 40 -30 85 -68 44 -39 140 -109 211 -157 72 -48 134 -91 137 -95 3
-5 9 -8 13 -8 10 2 130 -61 137 -71 3 -5 8 -9 10 -8 5 2 34 -10 135 -53 214
-92 501 -164 739 -184 161 -13 567 -5 595 12 3 2 26 6 51 9 24 3 58 8 75 10
64 9 307 77 411 116 131 49 345 150 356 167 4 7 13 13 20 13 7 0 32 13 56 29
25 17 48 28 53 25 4 -3 8 -1 8 4 0 5 26 26 57 48 32 21 93 67 135 101 43 35
78 61 78 59 0 -3 21 17 47 44 26 27 52 46 58 43 5 -4 7 -3 3 1 -8 10 32 57 44
50 4 -3 8 0 8 7 0 6 8 19 18 28 9 9 33 34 51 56 19 22 37 39 40 38 3 -2 6 0 6
5 0 4 29 43 64 87 36 44 86 112 111 152 26 40 50 69 54 66 3 -4 6 1 6 10 0 9
14 39 30 65 49 81 155 310 194 420 55 157 121 425 110 444 -3 5 -2 8 3 8 4 0
8 10 9 23 0 12 5 58 9 102 16 146 9 615 -10 645 -2 3 -6 28 -9 54 -6 48 -38
196 -55 254 -5 18 -10 33 -10 35 0 1 -2 9 -5 17 -2 8 -14 47 -27 85 -12 39
-39 111 -60 160 -22 50 -39 96 -39 103 0 6 -4 12 -10 12 -5 0 -10 6 -10 14 0
8 -16 42 -35 76 -19 34 -35 63 -35 65 0 19 -176 275 -250 364 -33 39 -58 71
-56 71 2 0 -53 55 -123 123 -180 175 -254 232 -521 403 -25 15 -47 29 -50 29
-3 0 -45 20 -95 44 -285 138 -553 212 -890 247 -65 6 -305 11 -370 7z m1441
-1152 c63 -27 126 -90 156 -156 l23 -50 1 -992 1 -991 -1478 0 -1479 0 2 1001
3 1002 23 43 c12 23 27 42 33 42 6 0 8 4 5 9 -7 11 38 53 47 44 4 -3 7 -1 7 5
0 15 68 50 115 60 20 4 588 6 1263 6 l1227 -1 51 -22z m-1623 -2360 c13 -1 17
-10 17 -43 0 -106 6 -108 321 -108 233 0 246 1 267 20 25 23 24 20 26 77 1 24
5 46 9 49 3 4 334 7 734 8 l729 1 -2 -87 c-2 -104 -20 -143 -79 -173 -40 -20
-59 -20 -1707 -19 -1545 0 -1668 2 -1692 17 -30 20 -69 70 -73 95 -3 20 -6 95
-4 134 1 16 7 28 18 30 13 2 1363 1 1436 -1z"/>
<path d="M1368 3636 c-10 -7 -15 -16 -11 -19 3 -4 1 -7 -5 -7 -15 0 -16 -1524
-1 -1562 6 -15 21 -31 33 -35 11 -4 533 -7 1159 -8 l1138 0 27 21 27 22 1 768
c0 423 -3 777 -8 786 -25 51 52 48 -1191 48 -937 -1 -1155 -3 -1169 -14z"/>
<path d="M3897 1480 c-58 -52 -37 -142 37 -155 46 -9 85 10 101 47 26 63 -7
121 -73 131 -27 4 -40 0 -65 -23z"/>
</g>
</svg>
